<?xml version="1.0" standalone="no"?>
<!DOCTYPE svg PUBLIC "-//W3C//DTD SVG 20010904//EN"
 "http://www.w3.org/TR/2001/REC-SVG-20010904/DTD/svg10.dtd">
<svg version="1.0" xmlns="http://www.w3.org/2000/svg"
 width="273.000000pt" height="273.000000pt" viewBox="0 0 273.000000 273.000000"
 preserveAspectRatio="xMidYMid meet">
<metadata>
Created by potrace 1.11, written by Peter Selinger 2001-2013
</metadata>
<g transform="translate(0.000000,273.000000) scale(0.100000,-0.100000)"
fill="#000000" stroke="none">
<path d="M199 2623 c-3 -44 2 -1251 6 -1288 14 -128 68 -313 123 -421 l28 -55
2 886 2 885 -80 0 c-44 0 -80 -3 -81 -7z"/>
<path d="M430 1681 l0 -950 62 -78 c34 -43 70 -87 80 -97 17 -19 18 19 18
1027 l0 1047 -80 0 -80 0 0 -949z"/>
<path d="M675 2622 c-3 -3 -5 -490 -5 -1083 l0 -1078 74 -60 c41 -34 77 -61
81 -61 4 0 5 163 3 363 l-3 362 -27 60 c-75 171 -76 364 -2 545 l34 84 0 439
0 438 -75 -2 c-41 -1 -77 -4 -80 -7z"/>
<path d="M900 2240 c0 -214 1 -390 3 -390 1 0 23 18 47 41 25 23 62 52 83 66
l37 26 0 323 0 324 -85 0 -85 0 0 -390z"/>
<path d="M1141 2341 c1 -160 5 -295 9 -301 5 -9 26 -7 76 7 l69 18 3 283 2
282 -81 0 -80 0 2 -289z"/>
<path d="M1372 2354 l3 -278 90 -11 c172 -22 270 -67 375 -174 60 -61 160
-202 160 -226 0 -3 -71 -5 -157 -5 l-158 0 -39 40 c-22 22 -63 52 -91 65 -44
22 -64 25 -155 25 -58 1 -120 -4 -139 -9 -70 -21 -167 -115 -211 -205 -29 -58
-31 -70 -31 -174 -1 -104 1 -116 29 -174 36 -78 113 -157 187 -193 63 -31 143
-39 239 -24 70 11 106 28 168 80 l47 39 151 0 c83 0 150 -3 148 -8 -54 -121
-173 -255 -276 -310 -79 -42 -176 -71 -269 -79 l-73 -6 0 -338 c0 -198 4 -339
9 -339 13 0 152 60 231 100 137 68 237 136 340 231 25 22 68 56 95 74 120 79
260 250 353 433 71 140 112 273 132 437 12 93 16 1283 4 1294 -3 3 -266 7
-585 9 l-579 4 2 -278z"/>
<path d="M902 632 c3 -224 8 -334 16 -348 11 -20 33 -36 120 -85 l32 -19 0
318 0 317 -33 22 c-17 12 -56 45 -86 72 l-53 50 4 -327z"/>
<path d="M1147 751 c-3 -11 -6 -153 -6 -316 l-2 -295 23 -9 c13 -5 49 -21 81
-35 l57 -26 0 334 0 333 -52 12 c-29 6 -63 14 -74 17 -16 4 -23 0 -27 -15z"/>
</g>
</svg>
